<?xml version="1.0" encoding="UTF-8" standalone="no"?>
<svg
   xmlns:dc="http://purl.org/dc/elements/1.1/"
   xmlns:cc="http://creativecommons.org/ns#"
   xmlns:rdf="http://www.w3.org/1999/02/22-rdf-syntax-ns#"
   xmlns:svg="http://www.w3.org/2000/svg"
   xmlns="http://www.w3.org/2000/svg"
   viewBox="0 0 666.66669 577.65332"
   height="577.65332"
   width="666.66669"
   xml:space="preserve"
   id="svg2"
   version="1.1"><metadata
     id="metadata8"><rdf:RDF><cc:Work
         rdf:about=""><dc:format>image/svg+xml</dc:format><dc:type
           rdf:resource="http://purl.org/dc/dcmitype/StillImage" /></cc:Work></rdf:RDF></metadata><defs
     id="defs6"><clipPath
       id="clipPath88"
       clipPathUnits="userSpaceOnUse"><path
         id="path86"
         d="m 2689.18,3199.55 -375.43,55.76 31.78,-212.49 343.65,156.73" /></clipPath><clipPath
       id="clipPath110"
       clipPathUnits="userSpaceOnUse"><path
         id="path108"
         d="m 633.676,3044.91 29.566,-225.83 -233.164,-31.46 c -21.18,-2.86 -40.676,11.98 -43.547,33.17 l -21.121,155.84 c -2.933,21.64 12.602,41.42 34.32,43.7 l 233.946,24.58" /></clipPath></defs><g
     transform="matrix(1.3333333,0,0,-1.3333333,0,577.65333)"
     id="g10"><g
       transform="scale(0.1)"
       id="g12"><path
         id="path14"
         style="fill:#e4f0f5;fill-opacity:1;fill-rule:nonzero;stroke:none"
         d="m 4388.86,1184.58 c 14.47,-31.47 27.07,-63.53 34.09,-97.24 36.94,-177.36 -96.57,-303 -223.2,-401.5 C 4052.24,571.102 3878.25,531.59 3695.78,519.539 3507.15,507.09 3322.72,458.922 3129.15,456.719 2489.49,449.449 1855.4,563.738 1225.92,677.621 1083.58,703.359 938.512,730.051 811.301,798.898 524.84,953.762 324.723,1236.88 315.941,1564.84 c -3.093,115.58 25.11,236.2 100.801,323.6 87.391,100.91 228.399,148.3 302.399,259.4 62.839,94.34 64.593,215.25 64.195,328.61 -0.523,149.02 -1.051,298.04 -1.574,447.06 -0.66,186.73 -0.828,376.87 54.492,555.21 55.324,178.35 175.846,346.32 350.796,411.59 131.25,48.95 277.13,35.83 414.06,65.38 294.23,63.51 547,321.75 845.5,282.96 101.75,-13.22 193.74,-61.06 275.24,-121.57 77.92,-57.86 144.1,-157.1 227.94,-202.73 73.96,-40.26 199.86,-33.61 282.34,-46.46 127.41,-19.85 254.81,-39.69 382.22,-59.55 181.36,-28.25 375.45,-57.62 522.36,-176.3 116.54,-94.14 203.86,-228.86 243.05,-373.38 45.66,-168.42 5.84,-300.12 -70.48,-450.49 -56.39,-111.09 -59.28,-210.61 8.65,-317.61 68.77,-108.3 133.71,-193.03 151.54,-323.77 18.66,-136.77 -1.51,-277.06 -54.67,-404.24 -49.49,-118.4 -125.34,-236.28 -109.55,-363.64 9.49,-76.45 51.22,-143.92 83.61,-214.33" /><path
         id="path16"
         style="fill:#ffffff;fill-opacity:1;fill-rule:nonzero;stroke:none"
         d="M 5000,0 H 0 V 1073.24 H 5000 V 0" /><path
         id="path18"
         style="fill:#d5daea;fill-opacity:1;fill-rule:nonzero;stroke:none"
         d="m 140.762,1073.24 c 0,-34.57 1054.718,-62.6 2355.778,-62.6 1301.06,0 2355.77,28.03 2355.77,62.6 0,34.56 -1054.71,62.59 -2355.77,62.59 -1301.06,0 -2355.778,-28.03 -2355.778,-62.59" /><path
         id="path20"
         style="fill:#313057;fill-opacity:1;fill-rule:nonzero;stroke:none"
         d="M 3842.37,1067.56 H 1858.95 c -22.09,0 -40,17.91 -40,40 v 2911.98 c 0,22.09 17.91,40 40,40 h 1983.42 c 22.1,0 40,-17.91 40,-40 V 1107.56 c 0,-22.09 -17.9,-40 -40,-40" /><path
         id="path22"
         style="fill:#457cc2;fill-opacity:1;fill-rule:nonzero;stroke:none"
         d="M 3807.11,1067.56 H 1823.68 c -22.09,0 -40,17.91 -40,40 v 2911.98 c 0,22.09 17.91,40 40,40 h 1983.43 c 22.09,0 40,-17.91 40,-40 V 1107.56 c 0,-22.09 -17.91,-40 -40,-40" /><path
         id="path24"
         style="fill:#c1cae3;fill-opacity:1;fill-rule:nonzero;stroke:none"
         d="M 1958.25,1197.1 H 3743.07 V 3930.01 H 1958.25 Z" /><path
         id="path26"
         style="fill:#ffffff;fill-opacity:1;fill-rule:nonzero;stroke:none"
         d="M 1922.99,1197.1 H 3707.8 V 3930.01 H 1922.99 Z" /><path
         id="path28"
         style="fill:#313057;fill-opacity:1;fill-rule:nonzero;stroke:none"
         d="m 3248.72,3868.34 h -866.64 v 212.27 c 0,27.61 22.38,50 50,50 h 766.64 c 27.61,0 50,-22.39 50,-50 v -212.27" /><path
         id="path30"
         style="fill:#313057;fill-opacity:1;fill-rule:nonzero;stroke:none"
         d="m 2815.4,4029.73 c -55.72,0 -100.88,45.17 -100.88,100.88 0,55.71 45.16,100.87 100.88,100.87 55.71,0 100.87,-45.16 100.87,-100.87 0,-55.71 -45.16,-100.88 -100.87,-100.88 z m 0,302.63 c -111.43,0 -201.75,-90.32 -201.75,-201.75 0,-111.42 90.32,-201.75 201.75,-201.75 111.42,0 201.74,90.33 201.74,201.75 0,111.43 -90.32,201.75 -201.74,201.75" /><path
         id="path32"
         style="fill:#d5daea;fill-opacity:1;fill-rule:nonzero;stroke:none"
         d="m 3431.32,3160.82 v 5 h -177.06 c -8.29,0.02 -14.99,6.72 -15,15 v 177.06 c 0.01,8.28 6.71,14.99 15,15 h 177.06 c 8.28,-0.01 14.98,-6.72 15,-15 v -177.06 c -0.02,-8.28 -6.72,-14.98 -15,-15 v -5 -5 c 13.81,0 24.99,11.19 25,25 v 177.06 c -0.01,13.81 -11.19,25 -25,25 h -177.06 c -13.82,0 -25,-11.19 -25,-25 v -177.06 c 0,-13.81 11.18,-25 25,-25 h 177.06 v 5" /><path
         id="path34"
         style="fill:#e46261;fill-opacity:1;fill-rule:nonzero;stroke:none"
         d="m 3173.16,3299.46 c 35.82,-35.81 71.63,-71.63 107.45,-107.44 9.54,-9.55 25.78,-9.57 35.35,0 83.91,83.9 167.81,167.81 251.72,251.71 22.78,22.79 -12.57,58.15 -35.36,35.36 -83.9,-83.9 -167.81,-167.81 -251.71,-251.72 11.78,0 23.56,0 35.35,0 -35.81,35.82 -71.62,71.63 -107.44,107.45 -22.78,22.78 -58.14,-12.57 -35.36,-35.36" /><path
         id="path36"
         style="fill:#d5daea;fill-opacity:1;fill-rule:nonzero;stroke:none"
         d="m 3431.32,2739.72 v 5 h -177.06 c -8.29,0.02 -14.99,6.72 -15,15 v 177.06 c 0.01,8.29 6.71,14.99 15,15 h 177.06 c 8.28,-0.01 14.98,-6.72 15,-15 v -177.06 c -0.02,-8.28 -6.72,-14.98 -15,-15 v -5 -5 c 13.81,0.01 24.99,11.19 25,25 v 177.06 c -0.01,13.81 -11.19,25 -25,25 h -177.06 c -13.82,0 -25,-11.19 -25,-25 v -177.06 c 0,-13.81 11.18,-25 25,-25 h 177.06 v 5" /><path
         id="path38"
         style="fill:#e46261;fill-opacity:1;fill-rule:nonzero;stroke:none"
         d="m 3173.16,2878.36 c 35.82,-35.81 71.63,-71.63 107.45,-107.44 9.54,-9.55 25.78,-9.57 35.35,0 83.91,83.9 167.81,167.81 251.72,251.72 22.78,22.78 -12.57,58.14 -35.36,35.35 -83.9,-83.9 -167.81,-167.81 -251.71,-251.72 11.78,0 23.56,0 35.35,0 -35.81,35.82 -71.62,71.63 -107.44,107.45 -22.78,22.78 -58.14,-12.57 -35.36,-35.36" /><path
         id="path40"
         style="fill:#d5daea;fill-opacity:1;fill-rule:nonzero;stroke:none"
         d="m 3431.32,2338.16 v 5 h -177.06 c -8.29,0.01 -14.99,6.72 -15,15 v 177.06 c 0.01,8.28 6.71,14.98 15,15 h 177.06 c 8.28,-0.02 14.98,-6.72 15,-15 v -177.06 c -0.02,-8.28 -6.72,-14.99 -15,-15 v -5 -5 c 13.81,0 24.99,11.19 25,25 v 177.06 c -0.01,13.81 -11.19,25 -25,25 h -177.06 c -13.82,0 -25,-11.19 -25,-25 v -177.06 c 0,-13.81 11.18,-25 25,-25 h 177.06 v 5" /><path
         id="path42"
         style="fill:#e46261;fill-opacity:1;fill-rule:nonzero;stroke:none"
         d="m 3173.16,2476.79 c 35.82,-35.81 71.63,-71.62 107.45,-107.43 9.54,-9.55 25.78,-9.57 35.35,0 83.91,83.91 167.81,167.81 251.72,251.71 22.78,22.79 -12.57,58.15 -35.36,35.36 -83.9,-83.91 -167.81,-167.81 -251.71,-251.72 11.78,0 23.56,0 35.35,0 -35.81,35.81 -71.62,71.63 -107.44,107.44 -22.78,22.78 -58.14,-12.56 -35.36,-35.36" /><path
         id="path44"
         style="fill:#d5daea;fill-opacity:1;fill-rule:nonzero;stroke:none"
         d="m 3431.32,1930.08 v 5 h -177.06 c -8.29,0.02 -14.99,6.72 -15,15 v 177.06 c 0.01,8.29 6.71,14.99 15,15 h 177.06 c 8.28,-0.01 14.98,-6.72 15,-15 v -177.06 c -0.02,-8.28 -6.72,-14.98 -15,-15 v -5 -5 c 13.81,0.01 24.99,11.19 25,25 v 177.06 c -0.01,13.81 -11.19,25 -25,25 h -177.06 c -13.82,0 -25,-11.19 -25,-25 v -177.06 c 0,-13.8 11.18,-24.99 25,-25 h 177.06 v 5" /><path
         id="path46"
         style="fill:#e46261;fill-opacity:1;fill-rule:nonzero;stroke:none"
         d="m 3173.16,2068.73 c 35.82,-35.82 71.63,-71.64 107.45,-107.45 9.54,-9.55 25.78,-9.57 35.35,0 83.91,83.91 167.81,167.82 251.72,251.72 22.78,22.78 -12.57,58.15 -35.36,35.35 -83.9,-83.9 -167.81,-167.81 -251.71,-251.71 11.78,0 23.56,0 35.35,0 -35.81,35.82 -71.62,71.63 -107.44,107.44 -22.78,22.78 -58.14,-12.56 -35.36,-35.35" /><path
         id="path48"
         style="fill:#c1cae3;fill-opacity:1;fill-rule:nonzero;stroke:none"
         d="m 3067.97,3351.85 h -896 c -5.52,0 -10,4.48 -10,10 v 15.8 c 0,5.53 4.48,10 10,10 h 896 c 5.53,0 10,-4.47 10,-10 v -15.8 c 0,-5.52 -4.47,-10 -10,-10" /><path
         id="path50"
         style="fill:#c1cae3;fill-opacity:1;fill-rule:nonzero;stroke:none"
         d="m 3067.97,3259.59 h -896 c -5.52,0 -10,4.48 -10,10 v 15.8 c 0,5.52 4.48,10 10,10 h 896 c 5.53,0 10,-4.48 10,-10 v -15.8 c 0,-5.52 -4.47,-10 -10,-10" /><path
         id="path52"
         style="fill:#c1cae3;fill-opacity:1;fill-rule:nonzero;stroke:none"
         d="m 2852,3167.33 h -680.03 c -5.52,0 -10,4.48 -10,10 v 15.8 c 0,5.53 4.48,10 10,10 H 2852 c 5.52,0 10,-4.47 10,-10 v -15.8 c 0,-5.52 -4.48,-10 -10,-10" /><path
         id="path54"
         style="fill:#c1cae3;fill-opacity:1;fill-rule:nonzero;stroke:none"
         d="m 3067.97,2930.75 h -896 c -5.52,0 -10,4.48 -10,10 v 15.8 c 0,5.53 4.48,10 10,10 h 896 c 5.53,0 10,-4.47 10,-10 v -15.8 c 0,-5.52 -4.47,-10 -10,-10" /><path
         id="path56"
         style="fill:#c1cae3;fill-opacity:1;fill-rule:nonzero;stroke:none"
         d="m 3067.97,2838.49 h -896 c -5.52,0 -10,4.48 -10,10 v 15.8 c 0,5.52 4.48,10 10,10 h 896 c 5.53,0 10,-4.48 10,-10 v -15.8 c 0,-5.52 -4.47,-10 -10,-10" /><path
         id="path58"
         style="fill:#c1cae3;fill-opacity:1;fill-rule:nonzero;stroke:none"
         d="m 2852,2746.24 h -680.03 c -5.52,0 -10,4.47 -10,10 v 15.8 c 0,5.52 4.48,10 10,10 H 2852 c 5.52,0 10,-4.48 10,-10 v -15.8 c 0,-5.53 -4.48,-10 -10,-10" /><path
         id="path60"
         style="fill:#c1cae3;fill-opacity:1;fill-rule:nonzero;stroke:none"
         d="m 3067.97,2529.18 h -896 c -5.52,0 -10,4.48 -10,10 v 15.81 c 0,5.52 4.48,10 10,10 h 896 c 5.53,0 10,-4.48 10,-10 v -15.81 c 0,-5.52 -4.47,-10 -10,-10" /><path
         id="path62"
         style="fill:#c1cae3;fill-opacity:1;fill-rule:nonzero;stroke:none"
         d="m 3067.97,2436.93 h -896 c -5.52,0 -10,4.48 -10,10 v 15.8 c 0,5.53 4.48,10 10,10 h 896 c 5.53,0 10,-4.47 10,-10 v -15.8 c 0,-5.52 -4.47,-10 -10,-10" /><path
         id="path64"
         style="fill:#c1cae3;fill-opacity:1;fill-rule:nonzero;stroke:none"
         d="m 2852,2344.67 h -680.03 c -5.52,0 -10,4.48 -10,10 v 15.8 c 0,5.52 4.48,10 10,10 H 2852 c 5.52,0 10,-4.48 10,-10 v -15.8 c 0,-5.52 -4.48,-10 -10,-10" /><path
         id="path66"
         style="fill:#c1cae3;fill-opacity:1;fill-rule:nonzero;stroke:none"
         d="m 3067.97,2121.11 h -896 c -5.52,0 -10,4.48 -10,10 v 15.8 c 0,5.53 4.48,10 10,10 h 896 c 5.53,0 10,-4.47 10,-10 v -15.8 c 0,-5.52 -4.47,-10 -10,-10" /><path
         id="path68"
         style="fill:#c1cae3;fill-opacity:1;fill-rule:nonzero;stroke:none"
         d="m 3067.97,2028.85 h -896 c -5.52,0 -10,4.49 -10,10 v 15.8 c 0,5.53 4.48,10 10,10 h 896 c 5.53,0 10,-4.47 10,-10 v -15.8 c 0,-5.51 -4.47,-10 -10,-10" /><path
         id="path70"
         style="fill:#c1cae3;fill-opacity:1;fill-rule:nonzero;stroke:none"
         d="m 2852,1936.6 h -680.03 c -5.52,0 -10,4.47 -10,10 v 15.8 c 0,5.52 4.48,10 10,10 H 2852 c 5.52,0 10,-4.48 10,-10 v -15.8 c 0,-5.53 -4.48,-10 -10,-10" /><path
         id="path72"
         style="fill:#313057;fill-opacity:1;fill-rule:nonzero;stroke:none"
         d="m 1891.29,3250.54 c 45.3,-3.62 126.14,-35.03 110.06,-95.33 -0.71,-2.66 -1.72,-5.38 -3.79,-7.19 -2.81,-2.47 -6.87,-2.75 -10.61,-2.85 -20.21,-0.56 -42.16,0.83 -57.62,13.86 -9.71,8.18 -15.8,20.18 -26.11,27.59 -5.95,4.27 -12.98,6.75 -19.89,9.18 -11.98,4.21 -23.96,8.41 -35.94,12.61 -6.34,2.22 -13.5,5.28 -15.42,11.71 -2.1,7.05 3.37,14.1 9.31,18.44 14.15,10.31 32.56,13.38 50.01,11.98" /><path
         id="path74"
         style="fill:#313057;fill-opacity:1;fill-rule:nonzero;stroke:none"
         d="m 838.852,1066.86 0.683,-0.14 c 18.899,-3.82 38.207,-3.11 57.383,-3.27 34.883,-0.29 69.648,-0.62 104.512,0.95 21.43,0.97 30.13,11.62 34.12,31.48 4.15,20.71 5.72,41.93 4.64,63.02 -0.11,2.04 -0.26,4.18 -1.35,5.93 -1.37,2.23 -3.97,3.34 -6.42,4.25 -8.49,3.1 -17.35,5.18 -26.33,6.18 -6.16,0.69 -17.492,2.92 -22.715,-1.01 -5.176,-3.88 -9.203,-13.13 -12.848,-18.47 -4.648,-6.82 -9.449,-13.59 -15.367,-19.38 -11.555,-11.31 -26.699,-18.29 -42.176,-22.95 -15.48,-4.67 -31.504,-7.19 -47.246,-10.87 -11.711,-2.73 -23.543,-6.24 -33.258,-13.33 -4.023,-2.93 -7.937,-7.27 -7.261,-12.2 0.82,-6.01 7.617,-8.87 13.633,-10.19" /><path
         id="path76"
         style="fill:#313057;fill-opacity:1;fill-rule:nonzero;stroke:none"
         d="m 1691.9,1066.86 -0.68,-0.14 c -18.9,-3.82 -38.21,-3.11 -57.38,-3.27 -34.89,-0.29 -69.65,-0.62 -104.51,0.95 -21.43,0.97 -30.14,11.62 -34.12,31.48 -4.15,20.71 -5.72,41.93 -4.64,63.02 0.1,2.04 0.26,4.18 1.34,5.93 1.38,2.23 3.97,3.34 6.43,4.25 8.49,3.1 17.34,5.18 26.32,6.18 6.17,0.69 17.5,2.92 22.72,-1.01 5.18,-3.88 9.21,-13.13 12.85,-18.47 4.65,-6.82 9.45,-13.59 15.37,-19.38 11.55,-11.31 26.7,-18.29 42.17,-22.95 15.48,-4.67 31.51,-7.19 47.25,-10.87 11.71,-2.73 23.54,-6.24 33.26,-13.33 4.02,-2.93 7.94,-7.27 7.26,-12.2 -0.82,-6.01 -7.62,-8.87 -13.64,-10.19" /><path
         id="path78"
         style="fill:#313057;fill-opacity:1;fill-rule:nonzero;stroke:none"
         d="m 1269.04,3383.73 c -0.35,-5.21 -0.92,-10.39 -2.13,-15.45 -5.49,-22.89 -22.41,-39.85 -34.83,-59.07 -10.6,-16.41 -12.92,-37.07 -10.02,-56.09 6.2,-40.8 30.81,-79.16 57.98,-109.3 5.84,-6.48 12.51,-14.67 20.01,-19.23 8.67,-5.28 20.46,-8.12 30.06,-11.3 27.3,-9.07 55.58,-15.16 84.19,-18.14 14.06,-1.46 28.2,-2.06 42.33,-2.27 12.94,-0.2 25.42,7.2 36.99,12.88 13.34,6.55 26.1,14.48 37.06,24.52 11.7,10.74 21.13,23.67 30.3,36.63 7.1,10.04 14.25,20.51 16.84,32.53 3.08,14.34 -0.59,29.9 4.75,43.56 3.38,8.67 10.04,15.58 15.08,23.4 16.74,25.95 -7.03,57.44 6.58,84.46 8.46,16.8 25.58,27.15 32.87,44.58 6.9,16.49 6.71,36.14 -0.09,52.62 -11.29,27.38 -36.91,46.51 -64.06,58.36 -31.04,13.54 -70.31,18.07 -96.32,-3.62 -5.53,-4.6 -10.16,-10.17 -15.4,-15.09 -24.71,-23.22 -53.7,-21.9 -83.23,-20.58 -20.66,0.92 -41.59,1.85 -61.49,-5.63 -20.05,-7.54 -37.85,-23.24 -43.82,-43.81 -3.17,-10.96 -2.89,-22.55 -3.65,-33.96" /><path
         id="path80"
         style="fill:#ecebef;fill-opacity:1;fill-rule:nonzero;stroke:none"
         d="m 2689.18,3199.55 -375.43,55.76 31.78,-212.49 343.65,156.73" /><g
         id="g82"><g
           clip-path="url(#clipPath88)"
           id="g84"><path
             id="path90"
             style="fill:#e46261;fill-opacity:1;fill-rule:nonzero;stroke:none"
             d="m 2544.47,3150.42 c 3.24,-12.88 8.65,-24.74 16.19,-34.34 26.45,-33.66 88.96,-11.31 120.13,2.75 36.71,16.56 62.5,48.68 65.96,89.39 0.95,11.07 -0.47,22.62 -5.96,32.27 -12.17,21.36 -42.25,25.75 -64.09,30.67 -26.66,6 -54.79,6.86 -81.15,-1.04 -46.24,-13.87 -62.73,-73.33 -51.08,-119.7" /></g></g><path
         id="path92"
         style="fill:#f3ba13;fill-opacity:1;fill-rule:nonzero;stroke:none"
         d="m 2303.93,3255.79 -1670.254,-210.88 -20.231,-232.55 1724.485,228.27 -34,215.16" /><path
         id="path94"
         style="fill:#ffffff;fill-opacity:1;fill-rule:nonzero;stroke:none"
         d="m 597.168,2968.31 36.508,76.6 -6.336,-72.84 -30.172,-3.76" /><path
         id="path96"
         style="fill:#f7c637;fill-opacity:1;fill-rule:nonzero;stroke:none"
         d="m 627.34,2972.07 6.336,72.84 1670.254,210.88 11.64,-73.68 -1688.23,-210.04" /><path
         id="path98"
         style="fill:#d3d4da;fill-opacity:1;fill-rule:nonzero;stroke:none"
         d="m 613.445,2812.36 -7.465,71.51 13.84,1.77 -6.375,-73.28 168.629,22.32 v 0 l -168.629,-22.32" /><path
         id="path100"
         style="fill:#d1a222;fill-opacity:1;fill-rule:nonzero;stroke:none"
         d="m 613.445,2812.36 6.375,73.28 1708.08,218.49 10.03,-63.5 -414.94,-54.92 -139.31,-18.44 -1001.606,-132.59 -168.629,-22.32" /><path
         id="path102"
         style="fill:#6c92a2;fill-opacity:1;fill-rule:nonzero;stroke:none"
         d="m 633.676,3044.91 29.566,-225.83 -233.164,-31.46 c -21.183,-2.86 -40.676,11.98 -43.547,33.17 l -21.121,155.84 c -2.933,21.64 12.602,41.42 34.32,43.7 l 233.946,24.58" /><g
         id="g104"><g
           clip-path="url(#clipPath110)"
           id="g106"><path
             id="path112"
             style="fill:#c8656b;fill-opacity:1;fill-rule:nonzero;stroke:none"
             d="m 458.121,3052.31 36.359,-272.38 -120.082,-8.51 -38.988,252.32 122.711,28.57" /><path
             id="path114"
             style="fill:#567f8d;fill-opacity:1;fill-rule:nonzero;stroke:none"
             d="m 506.078,3055.99 37.688,-281.91 68.75,5.36 -39.782,282.73 -9.902,-1.39 38.297,-272.2 -48.703,-3.8 -36.434,272.54 -9.914,-1.33" /></g></g><path
         id="path116"
         style="fill:#ecebef;fill-opacity:1;fill-rule:nonzero;stroke:none"
         d="m 2334.66,3103.2 c -20.41,-5.87 -42.09,7.25 -48.43,29.3 -6.34,22.05 5.06,44.67 25.47,50.54 20.4,5.87 42.09,-7.24 48.43,-29.29 6.34,-22.05 -5.07,-44.68 -25.47,-50.55" /><path
         id="path118"
         style="fill:#ecebef;fill-opacity:1;fill-rule:nonzero;stroke:none"
         d="m 2342.07,3041.83 c -18.55,-5.34 -37.66,4.45 -42.66,21.86 -5.01,17.41 5.97,35.85 24.53,41.18 18.55,5.34 37.65,-4.45 42.65,-21.86 5.01,-17.41 -5.97,-35.85 -24.52,-41.18" /><path
         id="path120"
         style="fill:#ecebef;fill-opacity:1;fill-rule:nonzero;stroke:none"
         d="m 2320.21,3182.03 c -18.55,-5.34 -38.25,6.55 -44,26.56 -5.76,20.01 4.62,40.55 23.17,45.88 18.55,5.34 38.25,-6.55 44,-26.56 5.76,-20 -4.62,-40.55 -23.17,-45.88" /><path
         id="path122"
         style="fill:#457cc2;fill-opacity:1;fill-rule:nonzero;stroke:none"
         d="m 1068.87,1520.07 c 36.78,151.79 70.87,304.24 90.54,459.09 6.31,49.6 12.39,99.26 19.29,148.78 7.46,53.63 16.06,104.6 26.7,180.68 3.85,27.5 60.72,26.99 87.77,33.26 67.53,15.64 137.14,7.37 205.63,6.24 6.36,-0.11 13.29,0.49 20.37,1.09 20.97,1.76 43.21,3.53 55.63,-12.97 17.74,-23.59 17.34,-65.11 18.93,-93.12 14.14,-248.68 -15.72,-496.91 -22.68,-745.28 -2.92,-104.32 -1.12,-207.81 4.07,-312.02 1.02,-20.61 -4.15,-41.04 -27.62,-44.06 -10.8,-1.38 -32.78,-0.38 -42.63,5.28 -22.2,12.76 -36.13,54.98 -43.74,77.42 -10.94,32.24 -16.82,65.97 -22.57,99.44 -10.66,62 -15.94,124.77 -20.15,187.48 -13.71,204.35 -24.34,336.24 -9.13,558.37 -20.76,-119.54 -20.35,-197.6 -57.01,-313.25 -34.77,-109.67 -85.47,-213.35 -137.91,-315.46 -29.09,-56.61 -56.75,-114.01 -88.33,-169.31 -15.77,-27.61 -32.49,-54.7 -50.79,-80.72 -16.06,-22.84 -28.73,-45.97 -58.85,-49.5 -12.98,-1.52 -26.093,0.02 -39.066,1.56 -3.594,0.43 -7.746,1.22 -9.426,4.43 -1.066,2.03 -0.793,4.48 -0.46,6.74 8.867,60.76 39.022,120.07 55.312,179.48 16.93,61.72 31.04,124.17 46.12,186.35" /><path
         id="path124"
         style="fill:#f2b49b;fill-opacity:1;fill-rule:nonzero;stroke:none"
         d="m 1180.26,2302.74 c 3.83,2.72 8.24,4.81 12.61,6.6 8.65,3.55 17.61,6.34 26.75,8.34 21.28,4.66 19.49,-8.03 23.74,-22.76 5.15,-17.83 15.81,-35.39 22.63,-52.76 7.52,-19.12 21.16,-35.75 -0.83,-48.19 -11.2,-6.35 -23.73,-10.31 -36.54,-11.58 -2.5,-0.26 -5.13,-0.38 -7.45,0.6 -2.18,0.94 -3.84,2.77 -5.35,4.6 -9.8,11.9 -19.36,24.99 -28.32,37.62 -12.8,18.06 -23.2,33.55 -19.43,56.92 0.69,4.29 1.88,8.56 4.14,12.27 2.05,3.35 4.85,6.06 8.05,8.34" /><path
         id="path126"
         style="fill:#4f93d4;fill-opacity:1;fill-rule:nonzero;stroke:none"
         d="m 1191.72,2173.83 c 27.37,-1.66 53.31,-1.12 77.06,14.11 22.5,14.42 37.95,36.2 48.66,60.31 2.59,5.83 -6.02,10.92 -8.63,5.05 -9.99,-22.5 -24.02,-43.17 -45.07,-56.73 -22.07,-14.22 -46.72,-14.27 -72.02,-12.74 -6.43,0.39 -6.41,-9.61 0,-10" /><path
         id="path128"
         style="fill:#4f93d4;fill-opacity:1;fill-rule:nonzero;stroke:none"
         d="m 1589.5,2136.43 c -56.07,-8.45 -66.85,82.13 -73.22,120.73 -1.05,6.34 -10.68,3.66 -9.64,-2.65 5.7,-34.55 12.87,-71.81 31.12,-102.35 12.98,-21.72 29.12,-29.18 54.4,-25.37 6.35,0.96 3.65,10.59 -2.66,9.64" /><path
         id="path130"
         style="fill:#bbcdd9;fill-opacity:1;fill-rule:nonzero;stroke:none"
         d="m 1490.57,1158.91 c -7.07,8.75 -13.01,20.19 -17.95,31.66 0.02,0.77 0.05,1.53 0.09,2.3 4.89,-11.69 10.84,-23.52 17.94,-32.7 -0.04,-0.42 -0.06,-0.84 -0.08,-1.26" /><path
         id="path132"
         style="fill:#312f4f;fill-opacity:1;fill-rule:nonzero;stroke:none"
         d="m 1536.21,1141.21 c -11.14,0 -25.12,1.63 -32.42,5.83 -4.79,2.75 -9.19,6.87 -13.22,11.87 0.02,0.42 0.04,0.84 0.08,1.26 4.3,-5.57 9.04,-10.15 14.22,-13.13 7.19,-4.13 20.83,-5.78 31.88,-5.83 -0.18,0 -0.36,0 -0.54,0" /><path
         id="path134"
         style="fill:#bbcdd9;fill-opacity:1;fill-rule:nonzero;stroke:none"
         d="m 1205.9,2314.04 c 10.16,22.04 61.05,22.01 86.18,27.84 31.83,7.37 64.11,9.43 96.53,9.43 0.16,0 0.31,0 0.47,0 -32.2,-0.02 -64.29,-2.1 -95.91,-9.43 -24.99,-5.79 -75.43,-5.8 -86,-27.45 -0.42,-0.13 -0.85,-0.26 -1.27,-0.39 m 294.39,34.07 c -0.5,0 -0.99,0 -1.49,0.01 -0.11,0 -0.23,0 -0.34,0.01 l 1.74,0.01 c 0.03,-0.01 0.06,-0.02 0.09,-0.03" /><path
         id="path136"
         style="fill:#4571ae;fill-opacity:1;fill-rule:nonzero;stroke:none"
         d="m 1536.75,1141.21 c -11.05,0.05 -24.69,1.7 -31.88,5.83 -5.18,2.98 -9.92,7.56 -14.22,13.13 -7.1,9.18 -13.05,21.01 -17.94,32.7 2.57,60.01 24.23,121.58 36.97,178.7 16.35,73.25 26.89,147.7 33.38,222.45 12.74,146.64 9.99,295.94 7.41,441.73 -0.54,31.08 -1.34,63.27 -14.71,91.34 -28.51,59.83 -103.67,50.44 -158.75,59.82 -29.1,4.95 -58.05,11.13 -86.37,19.43 11.25,12.16 19.99,26.56 26.8,41.91 1.78,4 -1.72,7.65 -4.94,7.65 -1.46,0 -2.87,-0.76 -3.69,-2.6 -7.18,-16.17 -16.44,-31.39 -28.89,-43.7 -0.94,0.29 -1.88,0.59 -2.81,0.89 0.26,9.39 -6.56,20.07 -11.12,31.67 -6.82,17.37 -17.48,34.93 -22.63,52.76 -3.64,12.62 -2.85,23.74 -15.93,23.74 -2.18,0 -4.76,-0.31 -7.81,-0.98 -4.19,-0.92 -8.34,-2 -12.45,-3.25 10.57,21.65 61.01,21.66 86,27.45 31.62,7.33 63.71,9.41 95.91,9.43 36.21,-0.02 72.59,-2.59 108.64,-3.19 l 0.74,0.01 c 0.11,-0.01 0.23,-0.01 0.34,-0.01 0.5,-0.01 0.99,-0.01 1.49,-0.01 35.38,-12.77 67.94,-34.19 89.8,-63.88 1.55,-14.53 1.87,-29.07 2.56,-41.11 14.13,-248.68 -15.73,-496.91 -22.68,-745.28 -2.92,-104.32 -1.13,-207.81 4.06,-312.02 1.03,-20.61 -4.14,-41.04 -27.61,-44.06 -2.66,-0.34 -6,-0.54 -9.67,-0.55 m -24.6,1119.57 c -2.91,0 -6.14,-2.48 -5.51,-6.27 5.7,-34.55 12.87,-71.81 31.12,-102.35 10.84,-18.12 23.87,-26.32 42.58,-26.32 3.71,0 7.64,0.32 11.82,0.95 6.05,0.91 3.88,9.71 -1.8,9.71 -0.28,0 -0.56,-0.03 -0.86,-0.07 -2.47,-0.37 -4.86,-0.55 -7.16,-0.55 -49.86,0 -59.97,84.38 -66.06,121.28 -0.42,2.53 -2.2,3.62 -4.13,3.62" /><path
         id="path138"
         style="fill:#cf9c89;fill-opacity:1;fill-rule:nonzero;stroke:none"
         d="m 1277.11,2210.49 c -13.8,4.41 -27.42,9.37 -40.81,14.98 -12.17,5.1 -28.43,12.57 -40.72,22.83 2.76,18.46 5.66,38.32 8.74,60.32 0.27,1.94 0.81,3.74 1.58,5.42 0.42,0.13 0.85,0.26 1.27,0.39 4.11,1.25 8.26,2.33 12.45,3.25 3.05,0.67 5.63,0.98 7.81,0.98 13.08,0 12.29,-11.12 15.93,-23.74 5.15,-17.83 15.81,-35.39 22.63,-52.76 4.56,-11.6 11.38,-22.28 11.12,-31.67" /><path
         id="path140"
         style="fill:#4984bd;fill-opacity:1;fill-rule:nonzero;stroke:none"
         d="m 1290.64,2206.34 c -3.58,1.05 -7.16,2.14 -10.72,3.26 12.45,12.31 21.71,27.53 28.89,43.7 0.82,1.84 2.23,2.6 3.69,2.6 3.22,0 6.72,-3.65 4.94,-7.65 -6.81,-15.35 -15.55,-29.75 -26.8,-41.91" /><path
         id="path142"
         style="fill:#4984bd;fill-opacity:1;fill-rule:nonzero;stroke:none"
         d="m 1580.34,2125.84 c -18.71,0 -31.74,8.2 -42.58,26.32 -18.25,30.54 -25.42,67.8 -31.12,102.35 -0.63,3.79 2.6,6.27 5.51,6.27 1.93,0 3.71,-1.09 4.13,-3.62 6.09,-36.9 16.2,-121.28 66.06,-121.28 2.3,0 4.69,0.18 7.16,0.55 0.3,0.04 0.58,0.07 0.86,0.07 5.68,0 7.85,-8.8 1.8,-9.71 -4.18,-0.63 -8.11,-0.95 -11.82,-0.95" /><path
         id="path144"
         style="fill:#f2b49b;fill-opacity:1;fill-rule:nonzero;stroke:none"
         d="m 1617.27,2947.74 c -6.48,-3.62 -12.51,-7.88 -17.66,-13.26 -21.37,-22.4 -14.59,-64.82 14.69,-77.58 35.05,-15.27 77.57,-4.87 112.74,4.79 83.78,23.01 162.57,60.02 238.62,101.56 10.92,5.96 27.57,12.86 39.95,22.36 5.97,4.59 10.83,9.82 13.68,15.81 l -402.02,-53.68" /><path
         id="path146"
         style="fill:#dfe8e9;fill-opacity:1;fill-rule:nonzero;stroke:none"
         d="m 1626.43,2796.53 c -6.29,31.29 -15.07,61.98 -27.31,91.72 -13.8,33.55 -36.45,73.84 -68.56,93.23 -30.07,18.17 -89.39,0.82 -122.76,-6.94 -31.44,-7.31 -78.66,-17.15 -104.16,-38.2 -23.55,-19.43 -20.9,-67.97 -18.07,-96.05 3.26,-32.33 11.16,-64.06 14.02,-96.43 5.23,-59.11 -6.46,-118.35 -20.45,-176.02 -16.75,-69.05 -36.91,-137.39 -63.5,-203.28 -3.93,-9.76 -8.09,-19.97 -7.01,-30.42 1.85,-17.9 18.04,-30.53 33.53,-39.69 101.97,-60.35 226.8,-51.09 341.33,-45.46 9.48,0.47 19.51,1.22 27.27,6.71 9.69,6.84 13.4,19.28 16.01,30.86 14.16,62.76 14.64,127.71 14.36,192.06 -0.47,104.34 6.1,214.42 -14.7,317.91" /><path
         id="path148"
         style="fill:#f2b49b;fill-opacity:1;fill-rule:nonzero;stroke:none"
         d="m 1451.5,2950.45 c -22.86,6.98 -45.49,14.75 -67.83,23.28 -2.31,0.88 -4.69,1.82 -6.41,3.59 -4.67,4.78 -3.84,15.42 -4.22,21.68 -0.49,8.21 -0.17,16.45 0.4,24.65 1.05,15.01 3.56,30.04 3.45,45.11 -0.08,12.09 -0.04,24.74 5.47,35.51 6.61,12.91 20.26,21.04 34.37,24.41 14.1,3.37 28.82,2.62 43.3,1.86 4.19,-0.23 8.72,-0.57 11.93,-3.3 10.74,-9.16 8.24,-27.32 9.59,-39.88 1.97,-18.32 6.1,-36.37 10.1,-54.33 1.86,-8.37 4.45,-16.56 6.47,-24.89 1.59,-6.55 4.96,-15.29 2.4,-21.7 -5.67,-14.26 -18.22,-27.34 -30.41,-36.23 -1.65,-1.2 -3.41,-2.38 -5.42,-2.71 -2.09,-0.36 -4.21,0.25 -6.23,0.85 -2.32,0.69 -4.64,1.4 -6.96,2.1" /><path
         id="path150"
         style="fill:#e79987;fill-opacity:1;fill-rule:nonzero;stroke:none"
         d="m 1393.72,3030.71 c 28.5,-18.24 68.45,-29.13 102.31,-19.51 -1.35,7.22 -2.8,14.48 -4.44,21.83 -4,17.96 -8.13,36.01 -10.09,54.33 -1.35,12.56 1.14,30.72 -9.6,39.88 -3.19,2.73 -7.73,3.07 -11.92,3.3 -14.49,0.76 -29.2,1.51 -43.31,-1.86 -14.1,-3.37 -27.75,-11.5 -34.36,-24.41 -5.52,-10.77 -5.55,-23.42 -5.47,-35.51 0.05,-7.84 -0.35,-16.23 -0.84,-24.87 5.59,-4.75 11.48,-9.19 17.72,-13.18" /><path
         id="path152"
         style="fill:#f2b49b;fill-opacity:1;fill-rule:nonzero;stroke:none"
         d="m 1312.65,3186.68 c 7.4,-52.23 36.17,-102.21 81.11,-130.98 34.39,-22 85.47,-33.41 122.38,-10.88 49.53,30.23 59.5,103.64 58.24,156.36 -1.5,62.34 -26.01,132.13 -86.44,159.87 -42.48,19.5 -109.04,21.47 -139.41,-19.19 -31.44,-42.09 -43.58,-100.76 -35.88,-155.18" /><path
         id="path154"
         style="fill:#f2b49b;fill-opacity:1;fill-rule:nonzero;stroke:none"
         d="m 1897.34,3230.71 c 23.9,-22.07 40.72,-50.1 16.13,-64.62 -8.01,-4.73 -17.82,2.72 -22.87,10.54 -5.05,7.81 -9.73,17.47 -18.79,19.55 -7.03,1.62 -14.07,-2.09 -20.33,-5.67 -23.46,-13.42 -46.91,-26.82 -70.37,-40.24 -3.76,-2.14 -7.57,-4.31 -11.76,-5.38 -13.1,-3.32 -27.24,5.64 -32.6,18.04 -5.37,12.41 -3.28,27.03 2.45,39.27 20.37,43.51 50.83,47.9 93.97,49.43 25.55,0.89 45.15,-3.34 64.17,-20.92" /><path
         id="path156"
         style="fill:#313057;fill-opacity:1;fill-rule:nonzero;stroke:none"
         d="m 1504.15,3363.83 c -12.91,-1.54 -25.47,-6.15 -36.24,-13.45 -21.62,-14.64 -34.95,-38.67 -54.42,-56.07 -18.34,-16.39 -41.39,-26.29 -63.62,-36.8 -4.18,-1.98 -8.49,-4.11 -11.34,-7.74 -3.65,-4.65 -4.29,-10.99 -3.93,-16.89 2.02,-33.43 24.42,-63.03 7.19,-96.42 -1.79,-3.47 -4.01,-6.82 -7.14,-9.16 -19.12,-14.23 -36.25,21.58 -43.02,34.66 -10.11,19.53 -16.31,41.06 -18.43,62.94 -4.24,43.84 4.3,101.66 39.41,131.14 34.01,28.55 76.97,47.53 121.82,47.76 15.04,0.08 30.82,-2.02 45.24,-6.22 8.62,-2.5 14.56,-5.92 21.3,-11.55 4.02,-3.36 8,-5.7 11.09,-10.15 0.65,-0.94 5.41,-11.58 5.07,-11.56 -4.33,0.19 -8.67,0.02 -12.98,-0.49" /><path
         id="path158"
         style="fill:#ffffff;fill-opacity:1;fill-rule:nonzero;stroke:none"
         d="m 1436.34,3125.29 c 19.06,1.59 37.52,1.26 56.44,5.52 19.02,4.27 37.48,11.02 54.73,20.08 -0.03,-0.02 -1.79,-20.28 -2.42,-22.42 -2.4,-8.13 -6.17,-15.98 -11.2,-22.82 -16.31,-22.15 -53.32,-28.49 -76.49,-13.83 -6.17,3.9 -11.39,9.27 -15.17,15.51 -0.71,1.18 -8.05,17.77 -5.89,17.96" /><path
         id="path160"
         style="fill:#313057;fill-opacity:1;fill-rule:nonzero;stroke:none"
         d="m 1502.89,3273.73 c 15.31,7.12 35.17,8.84 47.44,-4.68 4.34,-4.77 11.39,2.32 7.07,7.07 -15.44,17.01 -40.28,15.21 -59.55,6.24 -5.83,-2.71 -0.76,-11.33 5.04,-8.63" /><path
         id="path162"
         style="fill:#312f4f;fill-opacity:1;fill-rule:nonzero;stroke:none"
         d="m 1005.05,1140.88 c -0.02,0 -0.04,0 -0.06,0 0.02,0 0.04,0 0.06,0 v 0 m 0.02,0 c 3.58,0 7.15,0.17 10.71,0.56 -3.56,-0.39 -7.13,-0.56 -10.71,-0.56 m 10.86,0.58 c 0.15,0.01 0.31,0.03 0.46,0.05 0.11,0.01 0.23,0.03 0.35,0.04 -0.12,-0.01 -0.24,-0.03 -0.35,-0.04 -0.15,-0.02 -0.31,-0.04 -0.46,-0.05 m -35.555,1.25 c -0.078,0.01 -0.156,0.02 -0.234,0.03 0.078,-0.01 0.156,-0.02 0.234,-0.03 m -0.773,0.09 c -0.172,0.02 -0.348,0.04 -0.524,0.06 0.176,-0.02 0.352,-0.04 0.524,-0.06 m -0.563,0.07 c -0.215,0.02 -0.43,0.05 -0.648,0.08 0.218,-0.03 0.433,-0.06 0.648,-0.08" /><path
         id="path164"
         style="fill:#bbcdd9;fill-opacity:1;fill-rule:nonzero;stroke:none"
         d="m 1023.13,1335.1 c 0.01,0.04 0.02,0.07 0.03,0.1 -0.01,-0.03 -0.02,-0.07 -0.03,-0.1 m 0.41,1.49 c 0,0.02 0.01,0.04 0.01,0.05 0,-0.01 -0.01,-0.03 -0.01,-0.05 m 0.73,2.69 c 0.04,0.15 0.08,0.29 0.12,0.44 -0.04,-0.15 -0.08,-0.29 -0.12,-0.44 m 0.35,1.3 c 9.5,35.08 18.11,70.37 26.57,105.7 0.01,0.02 0.02,0.03 0.03,0.05 -8.46,-35.35 -17.1,-70.66 -26.6,-105.75" /><path
         id="path166"
         style="fill:#4571ae;fill-opacity:1;fill-rule:nonzero;stroke:none"
         d="m 1005.05,1140.88 c -0.02,0 -0.04,0 -0.06,0 -8.201,0.01 -16.431,0.87 -24.615,1.83 -0.078,0.01 -0.156,0.02 -0.234,0.03 -0.18,0.02 -0.36,0.04 -0.539,0.06 -0.172,0.02 -0.348,0.04 -0.524,0.06 -0.015,0.01 -0.023,0.01 -0.039,0.01 -0.215,0.02 -0.43,0.05 -0.648,0.08 -0.262,0.03 -0.528,0.06 -0.789,0.09 -0.09,0.01 -0.184,0.02 -0.278,0.03 -3.594,0.43 -7.746,1.22 -9.426,4.43 -0.55,1.04 -0.742,2.2 -0.757,3.39 0,0.05 0,0.11 0,0.16 0.004,1.07 0.14,2.15 0.297,3.19 8.867,60.76 39.022,120.07 55.312,179.48 0.13,0.46 0.26,0.92 0.38,1.38 0.01,0.03 0.02,0.07 0.03,0.1 0.13,0.46 0.25,0.93 0.38,1.39 0,0.02 0.01,0.04 0.01,0.05 0.24,0.88 0.48,1.76 0.72,2.64 0.04,0.15 0.08,0.29 0.12,0.44 0.08,0.29 0.16,0.57 0.23,0.86 9.5,35.09 18.14,70.4 26.6,105.75 20.26,28.12 42.1,55.18 64.3,81.24 62.97,73.94 129.46,141.48 176.61,227.38 43.09,78.51 73.37,164.99 96.83,250.09 5.15,18.7 9.36,37.93 15.11,56.32 0.36,1.16 3.98,8.39 5.21,8.39 v 0 c -20.76,-119.54 -20.35,-197.6 -57.01,-313.25 -1.84,-5.78 -3.72,-11.55 -5.64,-17.3 -34.49,-103.3 -82.59,-201.43 -132.27,-298.15 -27.05,-52.64 -52.86,-105.96 -81.73,-157.62 -2.18,-3.91 -4.38,-7.81 -6.6,-11.7 -15.77,-27.61 -32.49,-54.7 -50.79,-80.72 v 0 c -16.01,-22.75 -28.63,-45.78 -58.5,-49.46 -0.12,-0.01 -0.24,-0.03 -0.35,-0.04 -0.15,-0.02 -0.31,-0.04 -0.46,-0.05 -0.05,-0.01 -0.1,-0.01 -0.15,-0.02 -3.56,-0.39 -7.13,-0.56 -10.71,-0.56 -0.01,0 -0.01,0 -0.02,0 m 404.23,928.87 v 0 0 0" /><path
         id="path168"
         style="fill:#bbcdd9;fill-opacity:1;fill-rule:nonzero;stroke:none"
         d="m 1409.17,2068.07 c 0.03,0.56 0.07,1.11 0.11,1.68 -0.04,-0.55 -0.07,-1.12 -0.11,-1.68" /><path
         id="path170"
         style="fill:#4571ae;fill-opacity:1;fill-rule:nonzero;stroke:none"
         d="m 1408.99,2065.31 c 0.06,0.93 0.12,1.84 0.18,2.76 0.04,0.56 0.07,1.13 0.11,1.68 v 0 c 0.64,-0.01 0.18,-2.27 -0.29,-4.44" /><path
         id="path172"
         style="fill:#71c895;fill-opacity:1;fill-rule:nonzero;stroke:none"
         d="m 1400.28,2783.49 c 0.23,-15.77 0.47,-31.54 0.71,-47.31 0.15,-9.95 0.28,-20.05 -2.2,-29.69 -2.49,-9.63 -7.95,-18.93 -16.59,-23.85 -18.13,-10.33 -46.7,5.26 -56.91,21.09 -15.55,24.13 -21.09,51.3 -22.02,79.88 32.34,0.09 64.67,0.17 97,0.25 l 0.01,-0.37" /><path
         id="path174"
         style="fill:#f2b49b;fill-opacity:1;fill-rule:nonzero;stroke:none"
         d="m 1338.33,3148.84 c 11.85,-20.53 11.19,-43.09 -1.46,-50.4 -12.67,-7.31 -32.53,3.41 -44.38,23.93 -11.86,20.53 -11.2,43.09 1.46,50.4 12.65,7.31 32.52,-3.4 44.38,-23.93" /><path
         id="path176"
         style="fill:#313057;fill-opacity:1;fill-rule:nonzero;stroke:none"
         d="m 1426.74,3206.37 c 2.88,-13.38 -0.53,-25.45 -7.62,-26.98 -7.09,-1.52 -15.16,8.08 -18.05,21.45 -2.87,13.38 0.54,25.45 7.63,26.98 7.09,1.53 15.16,-8.08 18.04,-21.45" /><path
         id="path178"
         style="fill:#313057;fill-opacity:1;fill-rule:nonzero;stroke:none"
         d="m 1540.2,3229 c 1.08,-13.63 -3.9,-25.15 -11.13,-25.72 -7.22,-0.57 -13.96,10.02 -15.04,23.65 -1.08,13.64 3.91,25.16 11.14,25.73 7.22,0.57 13.95,-10.02 15.03,-23.66" /><path
         id="path180"
         style="fill:#313057;fill-opacity:1;fill-rule:nonzero;stroke:none"
         d="m 1418.89,3265.48 c -24.18,2.67 -45.14,-14.31 -53.7,-35.72 -2.4,-5.98 7.27,-8.57 9.64,-2.66 7.01,17.5 24.62,30.53 44.06,28.38 6.38,-0.7 6.33,9.31 0,10" /><path
         id="path182"
         style="fill:#ffffff;fill-opacity:1;fill-rule:nonzero;stroke:none"
         d="m 1500.37,2997.37 -34.12,-48.62 50.9,-43.09 v 82.89 l -16.78,8.82" /><path
         id="path184"
         style="fill:#ffffff;fill-opacity:1;fill-rule:nonzero;stroke:none"
         d="m 1327.36,2957.5 46.64,32.29 92.25,-41.04 -23.81,-60 -115.08,68.75" /><path
         id="path186"
         style="fill:#313057;fill-opacity:1;fill-rule:nonzero;stroke:none"
         d="m 1229.24,2290.4 c -26.34,-1.21 -43.54,21.05 -44.43,48.17 -0.31,9.57 -0.19,19.16 0.34,28.72 4.12,75.28 34.85,144.71 61.27,214.21 23.03,60.59 37.14,125.09 35.37,190.15 -1.42,52.1 -11.39,104.32 -30.98,152.71 -0.41,1.02 -0.83,2.1 -0.63,3.18 0.17,0.93 0.78,1.71 1.38,2.44 11.98,14.52 28.21,23.83 44.08,33.31 17.25,10.29 33.87,19.71 53.19,25.77 3.43,1.07 16.28,6.51 18.88,5.88 15.3,-3.71 32.15,-51.94 38.2,-65.33 63.44,-140.51 37.83,-308.26 -26.6,-443.64 -31.44,-66.06 -67.52,-131.42 -120.21,-182.19 -4.28,-4.11 -8.81,-8.22 -14.4,-10.21 -5.43,-1.93 -10.6,-2.95 -15.46,-3.17" /><path
         id="path188"
         style="fill:#313057;fill-opacity:1;fill-rule:nonzero;stroke:none"
         d="m 1082.87,2677.54 c -17.99,-30.41 -39.33,-63.34 -45.2,-97.63 -7.53,-43.81 4.49,-85.11 18.18,-126.81 25.75,-78.46 64.43,-151.38 109.76,-219.69 1.86,-2.79 4.36,-5.92 7.71,-5.7 1.64,0.12 3.1,1.04 4.47,1.95 22.01,14.54 44.04,29.09 66.05,43.63 3.48,2.3 7.13,4.78 8.89,8.57 2.57,5.56 0.33,12.03 -1.92,17.73 -19.98,50.45 -39.95,100.92 -59.93,151.38 -8.79,22.23 -17.68,44.82 -19.95,68.61 -3.39,35.49 8.43,71.2 27.22,101.5 18.79,30.3 44.26,55.85 70.44,80.06 9.3,8.6 18.97,17.4 24.22,28.93 16.82,36.94 14.03,79.94 10.32,119.29 -1.98,20.88 1.13,90.2 -31.97,89.51 -6.13,-0.12 -11.58,-3.78 -16.42,-7.53 -37.87,-29.27 -62.73,-70.98 -86.6,-111.62 -25.8,-43.91 -53.58,-86.48 -78.69,-130.83 -2.12,-3.74 -4.32,-7.52 -6.58,-11.35" /><path
         id="path190"
         style="fill:#313057;fill-opacity:1;fill-rule:nonzero;stroke:none"
         d="m 1654.83,2414.01 c 1.51,102.9 3.04,205.94 -2.76,308.74 -1.47,26.02 -3.49,51.99 -5.92,77.93 -1.57,16.84 -3.64,16.08 8.63,24.67 9.01,6.31 24.51,8.92 34.91,12.71 63.22,23.03 126.44,46.15 189.23,70.33 55.93,21.54 110.96,48.91 150.61,95.2 -57.96,-12.51 -117.17,-18 -176.21,-23.47 -79.52,-7.37 -159.26,-14.74 -239.1,-12.67 -32.53,0.85 -68.07,6.32 -97.07,21.1 10.98,-29.63 25.04,-62.59 26,-94.03 1.14,-37.38 3.68,-74.74 4.98,-112.13 2.55,-73.33 3.75,-146.71 3.59,-220.08 -0.24,-113.6 -8.32,-223.54 -19.09,-336.33 24.66,-2 49.65,0.24 73.56,6.56 4.22,1.12 8.55,2.44 11.83,5.33 3.36,2.96 5.22,7.21 6.92,11.34 12.74,30.95 22.23,63.34 26.39,96.55 2.83,22.61 3.17,45.46 3.5,68.25" /><path
         id="path192"
         style="fill:#335c85;fill-opacity:1;fill-rule:nonzero;stroke:none"
         d="m 1379.31,2485.97 c 64.43,135.38 90.04,303.13 26.6,443.64 -6.05,13.39 -22.9,61.62 -38.2,65.33 -2.6,0.63 -15.45,-4.81 -18.88,-5.88 -1.11,-0.35 -2.14,-0.82 -3.24,-1.19 1.36,-6.48 5.07,-11.29 8.37,-18.57 6.28,-13.88 9.6,-28.93 12.89,-43.77 14.54,-65.66 16.45,-134.13 5.3,-200.47 9.55,1.05 19.32,-0.09 28.38,-3.31 -1.44,-10.34 -9.3,-18.46 -13.99,-27.79 -9.29,-18.48 -5.76,-40.44 -3.41,-60.98 6.11,-53.17 2.69,-107.38 -9.85,-159.4 2.01,4.13 4.06,8.25 6.03,12.39" /><path
         id="path194"
         style="fill:#335c85;fill-opacity:1;fill-rule:nonzero;stroke:none"
         d="m 1606.54,2712.1 c -7.11,47.41 -13.71,94.9 -21.11,142.28 -6.42,44.96 -21.54,84.24 -40.85,123.41 -9.54,2.87 -18.79,6.36 -27.43,10.76 10.98,-29.63 25.04,-62.59 26,-94.03 1.14,-37.38 3.68,-74.74 4.98,-112.13 2.55,-73.33 3.75,-146.7 3.59,-220.08 -0.04,-20.37 -0.41,-40.59 -0.93,-60.76 14.03,43.66 35.45,85.65 41.18,131.17 3.43,27.16 1.13,54.67 -1.18,81.95 4.86,-2.33 10.4,-3.23 15.75,-2.57" /><path
         id="path196"
         style="fill:#ffffff;fill-opacity:1;fill-rule:nonzero;stroke:none"
         d="m 1476.1,2919.78 c 34.7,-102.3 26.46,-218.31 21.38,-324.7 -5.19,-108.81 -32.35,-211.79 -52.12,-318.36 -1.17,-6.29 8.47,-8.98 9.64,-2.65 19.97,107.59 47.24,211.21 52.48,321.01 5.11,107.22 13.31,224.04 -21.74,327.36 -2.05,6.06 -11.71,3.46 -9.64,-2.66" /><path
         id="path198"
         style="fill:#6c9ccd;fill-opacity:1;fill-rule:nonzero;stroke:none"
         d="m 4323.67,1906.93 -131.59,46.61 -69.29,-123.55 4.19,-1.49 c -25.96,1.7 -51.73,0.3 -76.85,-4.02 l 4.02,1.91 -81.82,115.65 -126,-60.09 38.37,-136.37 4.02,1.92 c -19.17,-16.79 -36.48,-35.94 -51.5,-57.18 l 1.48,4.19 -139.62,23.92 -46.61,-131.59 123.55,-69.3 1.48,4.2 c -1.7,-25.96 -0.3,-51.74 4.03,-76.85 l -1.92,4.02 -115.64,-81.82 60.09,-126 136.36,38.37 -1.91,4.01 c 16.79,-19.17 35.93,-36.48 57.18,-51.49 l -4.19,1.48 -23.92,-139.63 131.59,-46.61 69.29,123.56 -4.19,1.48 c 25.96,-1.7 51.73,-0.3 76.85,4.02 l -4.02,-1.91 81.82,-115.64 126,60.08 -38.37,136.37 -4.02,-1.91 c 19.17,16.78 36.48,35.93 51.5,57.17 l -1.48,-4.19 139.62,-23.92 46.61,131.59 -123.55,69.3 -1.48,-4.19 c 1.7,25.96 0.29,51.73 -4.03,76.84 l 1.92,-4.01 115.64,81.81 -60.09,126 -136.36,-38.36 1.91,-4.02 c -16.79,19.17 -35.94,36.48 -57.18,51.5 l 4.19,-1.48 23.92,139.62" /><path
         id="path200"
         style="fill:#a1bae3;fill-opacity:1;fill-rule:nonzero;stroke:none"
         d="m 4200.84,1769.19 c 148.46,-52.58 226.18,-215.56 173.6,-364.02 -52.59,-148.47 -215.57,-226.19 -364.03,-173.6 -148.46,52.59 -226.19,215.56 -173.6,364.03 52.58,148.46 215.57,226.18 364.03,173.59" /><path
         id="path202"
         style="fill:#5d92c4;fill-opacity:1;fill-rule:nonzero;stroke:none"
         d="m 4177.14,1702.3 c 111.52,-39.5 169.9,-161.92 130.4,-273.44 -39.5,-111.51 -161.92,-169.9 -273.43,-130.4 -111.52,39.5 -169.9,161.93 -130.4,273.44 39.49,111.51 161.92,169.9 273.43,130.4" /><path
         id="path204"
         style="fill:#ffffff;fill-opacity:1;fill-rule:nonzero;stroke:none"
         d="m 4155.38,1640.86 c 77.59,-27.48 118.2,-112.65 90.73,-190.24 -27.49,-77.58 -112.66,-118.2 -190.25,-90.72 -77.58,27.48 -118.2,112.65 -90.71,190.24 27.48,77.59 112.65,118.2 190.23,90.72" /><path
         id="path206"
         style="fill:#6c9ccd;fill-opacity:1;fill-rule:nonzero;stroke:none"
         d="m 4131.75,2530.06 -84.2,40.75 -55.26,-77.17 2.68,-1.3 c -17.16,3.05 -34.43,4.01 -51.47,2.99 l 2.81,0.97 -45.96,83.06 -88.34,-30.73 15.49,-93.64 2.82,0.97 c -14.01,-9.76 -26.95,-21.24 -38.51,-34.28 l 1.29,2.68 -91.22,26.23 -40.74,-84.2 77.17,-55.25 1.3,2.67 c -3.05,-17.16 -4.02,-34.43 -2.99,-51.47 l -0.98,2.81 -83.05,-45.96 30.73,-88.34 93.64,15.49 -0.98,2.83 c 9.77,-14.01 21.24,-26.95 34.28,-38.52 l -2.68,1.3 -26.22,-91.22 84.19,-40.74 55.27,77.16 -2.69,1.3 c 17.16,-3.04 34.43,-4.01 51.48,-2.99 l -2.82,-0.97 45.96,-83.06 88.34,30.73 -15.49,93.65 -2.82,-0.99 c 14.01,9.77 26.95,21.25 38.52,34.29 l -1.3,-2.68 91.22,-26.23 40.74,84.2 -77.17,55.25 -1.29,-2.67 c 3.04,17.16 4.01,34.42 2.98,51.47 l 0.98,-2.81 83.05,45.95 -30.72,88.35 -93.65,-15.49 0.98,-2.82 c -9.77,14 -21.24,26.94 -34.28,38.51 l 2.68,-1.3 26.23,91.22" /><path
         id="path208"
         style="fill:#a1bae3;fill-opacity:1;fill-rule:nonzero;stroke:none"
         d="m 4039.79,2447.4 c 94.99,-45.97 134.73,-160.25 88.76,-255.24 -45.97,-95 -160.24,-134.73 -255.23,-88.77 -94.99,45.97 -134.74,160.25 -88.77,255.24 45.97,94.99 160.24,134.73 255.24,88.77" /><path
         id="path210"
         style="fill:#5d92c4;fill-opacity:1;fill-rule:nonzero;stroke:none"
         d="m 4019.07,2404.59 c 71.35,-34.53 101.21,-120.37 66.68,-191.71 -34.53,-71.36 -120.36,-101.21 -191.72,-66.68 -71.35,34.53 -101.21,120.36 -66.68,191.72 34.53,71.35 120.37,101.21 191.72,66.67" /><path
         id="path212"
         style="fill:#ffffff;fill-opacity:1;fill-rule:nonzero;stroke:none"
         d="m 4000.05,2365.28 c 49.64,-24.03 70.41,-83.74 46.39,-133.38 -24.02,-49.65 -83.74,-70.42 -133.39,-46.39 -49.64,24.02 -70.41,83.74 -46.38,133.38 24.02,49.64 83.74,70.41 133.38,46.39" /><path
         id="path214"
         style="fill:#2f2e2f;fill-opacity:1;fill-rule:nonzero;stroke:none"
         d="m 2610.77,260.629 c -4.32,-4.43 -8.04,-9.309 -11.09,-14.527 l -4.65,2.41 c -0.67,2.968 -3.49,5.019 -6.59,4.66 -3.31,-0.391 -5.68,-3.391 -5.29,-6.703 0.39,-3.309 3.39,-5.668 6.7,-5.278 l 1.83,0.508 4.52,-2.34 c -2.51,-5.539 -4.32,-11.39 -5.39,-17.429 l 7.47,-1.321 c 2.3,13.063 8.49,25.071 17.91,34.731 l -5.42,5.289" /><path
         id="path216"
         style="fill:#2f2e2f;fill-opacity:1;fill-rule:nonzero;stroke:none"
         d="m 2665.64,283.648 c -1.7,0 -3.4,-0.058 -5.09,-0.168 l -0.74,6.258 c 1.87,1.5 2.96,3.891 2.66,6.453 -0.46,3.918 -4.02,6.731 -7.95,6.278 -3.93,-0.457 -6.75,-4.028 -6.28,-7.949 0.3,-2.551 1.89,-4.622 4.04,-5.649 l 0.74,-6.242 c -7.14,-1.16 -14.03,-3.32 -20.6,-6.449 l 3.27,-6.852 c 9.34,4.473 19.42,6.742 29.95,6.742 4.97,0 9.93,-0.531 14.76,-1.582 l 1.6,7.41 c -5.35,1.161 -10.85,1.75 -16.36,1.75" /><path
         id="path218"
         style="fill:#2f2e2f;fill-opacity:1;fill-rule:nonzero;stroke:none"
         d="m 2731.67,258.18 c 3.31,0.402 5.66,3.41 5.25,6.718 -0.4,3.313 -3.41,5.661 -6.72,5.25 -3.09,-0.378 -5.35,-3.039 -5.3,-6.078 l -4.16,-3.64 c -4.18,4.308 -8.89,8.129 -14.07,11.398 l -4.05,-6.406 c 11.34,-7.152 20.21,-17.274 25.64,-29.25 l 6.9,3.117 c -2.5,5.543 -5.67,10.711 -9.42,15.449 l 4.02,3.512 1.91,-0.07" /><path
         id="path220"
         style="fill:#2f2e2f;fill-opacity:1;fill-rule:nonzero;stroke:none"
         d="m 2660.17,181.57 c -3.86,-0.238 -7.75,-0.351 -11.57,-0.351 -8.81,0 -17.33,0.601 -24.79,1.793 -3.9,0.617 -8.46,1.547 -12.7,2.918 10.47,-18.61 30.7,-31.25 53.89,-31.25 28.55,0 52.62,19.16 59.49,45.031 -6.82,-4.492 -15.06,-8.25 -24.58,-11.223 -11.79,-3.679 -25.55,-6.066 -39.74,-6.918" /><path
         id="path222"
         style="fill:#2f2e2f;fill-opacity:1;fill-rule:nonzero;stroke:none"
         d="m 2691.43,212.422 c -7.5,0 -13.61,6.098 -13.61,13.598 0,7.5 6.11,13.601 13.61,13.601 7.5,0 13.6,-6.101 13.6,-13.601 0,-7.5 -6.1,-13.598 -13.6,-13.598 z m -47.38,-9.082 c -10.2,0 -18.5,8.301 -18.5,18.488 0,10.211 8.3,18.512 18.5,18.512 10.2,0 18.5,-8.301 18.5,-18.512 0,-10.187 -8.3,-18.488 -18.5,-18.488 z m 21.59,65.148 c -33.52,0 -60.79,-26.668 -60.79,-59.437 0,-4.25 0.46,-8.492 1.37,-12.61 6.73,-4.82 27.06,-8.91 53.48,-7.312 28.79,1.73 52.96,9.582 66.72,21.59 -0.06,1.941 -0.21,3.89 -0.46,5.812 -3.8,29.617 -29.73,51.957 -60.32,51.957" /><path
         id="path224"
         style="fill:#2f2e2f;fill-opacity:1;fill-rule:nonzero;stroke:none"
         d="m 2825.68,249.82 c -2.95,1.149 -8.06,3.09 -13.82,2.371 -5.51,-0.691 -8.44,-3.41 -8.44,-10.07 v -8.66 h 22.28 v -17.172 h -22.28 v -54.551 h -19.32 v 54.551 h -13.4 v 17.172 h 13.4 v 8.891 c 0,16.796 8.96,27.82 25.69,27.82 6.42,0 11.56,-1.211 15.89,-3.082 v -17.27" /><path
         id="path226"
         style="fill:#2f2e2f;fill-opacity:1;fill-rule:nonzero;stroke:none"
         d="m 2872.71,216.5 c -1.77,0.289 -3.58,0.461 -5.27,0.461 -8.95,0 -15.1,-5.481 -15.1,-16.133 v -39.09 h -19.31 v 71.723 h 18.72 v -7.84 c 4.51,6.731 11.4,9.77 20.21,9.77 4.14,0 8.47,-1.27 10.94,-3.371 l -10.19,-15.52" /><path
         id="path228"
         style="fill:#2f2e2f;fill-opacity:1;fill-rule:nonzero;stroke:none"
         d="m 2898.23,204.371 h 31.76 c -1.78,9.18 -7.33,14.367 -15.62,14.367 -9.11,0 -14.43,-5.476 -16.14,-14.367 z m 51.15,-6.66 c 0,-2.223 -0.15,-4.883 -0.37,-6.512 h -50.85 c 2.07,-10.359 9.33,-14.879 18.43,-14.879 6.22,0 12.95,2.52 18.13,6.891 l 11.32,-12.43 c -8.13,-7.48 -18.5,-10.89 -30.56,-10.89 -21.98,0 -37.23,14.961 -37.23,37.531 0,22.578 14.8,37.969 36.27,37.969 20.65,0 34.78,-15.332 34.86,-37.68" /><path
         id="path230"
         style="fill:#2f2e2f;fill-opacity:1;fill-rule:nonzero;stroke:none"
         d="m 2974.77,204.371 h 31.75 c -1.78,9.18 -7.33,14.367 -15.62,14.367 -9.1,0 -14.43,-5.476 -16.13,-14.367 z m 51.14,-6.66 c 0,-2.223 -0.15,-4.883 -0.37,-6.512 h -50.85 c 2.07,-10.359 9.33,-14.879 18.43,-14.879 6.22,0 12.95,2.52 18.13,6.891 l 11.33,-12.43 c -8.14,-7.48 -18.5,-10.89 -30.57,-10.89 -21.98,0 -37.22,14.961 -37.22,37.531 0,22.578 14.79,37.969 36.26,37.969 20.65,0 34.78,-15.332 34.86,-37.68" /><path
         id="path232"
         style="fill:#2f2e2f;fill-opacity:1;fill-rule:nonzero;stroke:none"
         d="m 3052.6,197.641 c 0,-11.332 7.47,-19.762 18.43,-19.762 11.4,0 18.5,8.801 18.5,19.762 0,10.949 -7.1,19.757 -18.5,19.757 -10.96,0 -18.43,-8.437 -18.43,-19.757 z m 56.77,0 c 0,-21.539 -14.96,-37.75 -34.72,-37.75 -9.62,0 -16.43,3.781 -21.09,9.32 v -37.082 h -19.24 v 101.332 h 18.87 v -7.922 c 4.66,5.852 11.55,9.852 21.39,9.852 19.83,0 34.79,-16.219 34.79,-37.75" /><path
         id="path234"
         style="fill:#2f2e2f;fill-opacity:1;fill-rule:nonzero;stroke:none"
         d="m 3137.81,161.738 h -19.31 v 71.723 h 19.31 z m 2.59,95.192 c 0,-6.961 -5.4,-12.289 -12.36,-12.289 -6.96,0 -12.28,5.328 -12.28,12.289 0,6.949 5.32,12.429 12.28,12.429 6.96,0 12.36,-5.48 12.36,-12.429" /><path
         id="path236"
         style="fill:#2f2e2f;fill-opacity:1;fill-rule:nonzero;stroke:none"
         d="m 3170.05,207.922 27.02,25.539 h 23.68 l -34.79,-33.75 35.01,-37.973 h -23.76 l -27.16,29.024 v -29.024 h -19.32 v 106.59 h 19.32 v -60.406" /><path
         id="path238"
         style="fill:#2f2e2f;fill-opacity:1;fill-rule:nonzero;stroke:none"
         d="m 1853.85,181.578 v 32.082 c -3.95,6.149 -12.45,11.422 -21.24,11.422 -14.21,0 -22.7,-11.723 -22.7,-27.391 0,-15.671 8.49,-27.25 22.7,-27.25 8.79,0 17.29,4.981 21.24,11.137 z m 0,-19.18 v 10.543 c -5.27,-7.179 -13.91,-12.3 -23.87,-12.3 -18.46,0 -31.5,14.05 -31.5,37.05 0,22.559 12.89,37.207 31.5,37.207 9.52,0 18.16,-4.687 23.87,-12.449 v 37.641 h 10.99 v -97.692 h -10.99" /><path
         id="path240"
         style="fill:#2f2e2f;fill-opacity:1;fill-rule:nonzero;stroke:none"
         d="m 1913.76,225.82 c -15.09,0 -22.56,-12.75 -23.14,-23.59 h 46.43 c -0.15,10.551 -7.18,23.59 -23.29,23.59 z m -34.72,-27.98 c 0,20.5 14.65,37.058 34.87,37.058 21.38,0 33.98,-16.699 33.98,-37.937 v -2.789 h -57.27 c 0.87,-13.332 10.25,-24.461 25.48,-24.461 8.06,0 16.26,3.23 21.83,8.937 l 5.27,-7.179 c -7.03,-7.028 -16.55,-10.828 -28.12,-10.828 -20.95,0 -36.04,15.078 -36.04,37.199" /><path
         id="path242"
         style="fill:#2f2e2f;fill-opacity:1;fill-rule:nonzero;stroke:none"
         d="m 1955.8,171.77 5.71,7.902 c 4.69,-5.422 13.62,-10.102 23.29,-10.102 10.84,0 16.7,5.121 16.7,12.149 0,17.14 -43.8,6.601 -43.8,32.82 0,10.981 9.52,20.359 26.37,20.359 12.01,0 20.51,-4.539 26.22,-10.257 l -5.13,-7.61 c -4.25,5.117 -12.01,8.93 -21.09,8.93 -9.67,0 -15.68,-4.832 -15.68,-11.129 0,-15.531 43.8,-5.273 43.8,-32.812 0,-11.872 -9.52,-21.379 -27.83,-21.379 -11.57,0 -21.39,3.507 -28.56,11.129" /><path
         id="path244"
         style="fill:#2f2e2f;fill-opacity:1;fill-rule:nonzero;stroke:none"
         d="m 2026.4,162.398 v 70.743 h 10.99 v -70.743 z m -1.9,88.172 c 0,4.098 3.37,7.469 7.32,7.469 4.1,0 7.47,-3.371 7.47,-7.469 0,-4.101 -3.37,-7.32 -7.47,-7.32 -3.95,0 -7.32,3.219 -7.32,7.32" /><path
         id="path246"
         style="fill:#2f2e2f;fill-opacity:1;fill-rule:nonzero;stroke:none"
         d="m 2106.81,182.75 v 30.91 c -3.81,6.149 -12.3,11.422 -21.09,11.422 -14.21,0 -22.7,-11.281 -22.7,-26.953 0,-15.527 8.49,-26.949 22.7,-26.949 8.79,0 17.28,5.422 21.09,11.57 z m -51.26,-38.52 5.56,8.211 c 5.86,-7.031 12.89,-9.679 23,-9.679 11.72,0 22.7,5.707 22.7,21.238 v 10.121 c -5.13,-7.191 -13.76,-12.609 -23.73,-12.609 -18.45,0 -31.49,13.769 -31.49,36.617 0,22.711 12.89,36.769 31.49,36.769 9.52,0 18.02,-4.687 23.73,-12.449 v 10.692 h 10.99 v -68.7 c 0,-23.441 -16.41,-30.75 -33.69,-30.75 -12.02,0 -20.22,2.34 -28.56,10.539" /><path
         id="path248"
         style="fill:#2f2e2f;fill-opacity:1;fill-rule:nonzero;stroke:none"
         d="m 2183.86,162.398 v 46.282 c 0,12.449 -6.3,16.402 -15.82,16.402 -8.65,0 -16.85,-5.273 -20.95,-10.98 v -51.704 h -10.98 v 70.743 h 10.98 v -10.25 c 4.99,5.859 14.65,12.007 25.2,12.007 14.79,0 22.55,-7.468 22.55,-22.847 v -49.653 h -10.98" /><path
         id="path250"
         style="fill:#2f2e2f;fill-opacity:1;fill-rule:nonzero;stroke:none"
         d="m 2243.77,225.82 c -15.09,0 -22.56,-12.75 -23.14,-23.59 h 46.43 c -0.15,10.551 -7.18,23.59 -23.29,23.59 z m -34.72,-27.98 c 0,20.5 14.65,37.058 34.87,37.058 21.38,0 33.98,-16.699 33.98,-37.937 v -2.789 h -57.27 c 0.87,-13.332 10.25,-24.461 25.48,-24.461 8.06,0 16.26,3.23 21.83,8.937 l 5.27,-7.179 c -7.03,-7.028 -16.55,-10.828 -28.12,-10.828 -20.95,0 -36.04,15.078 -36.04,37.199" /><path
         id="path252"
         style="fill:#2f2e2f;fill-opacity:1;fill-rule:nonzero;stroke:none"
         d="m 2343.23,181.578 v 32.082 c -3.96,6.149 -12.45,11.422 -21.24,11.422 -14.21,0 -22.71,-11.723 -22.71,-27.391 0,-15.671 8.5,-27.25 22.71,-27.25 8.79,0 17.28,4.981 21.24,11.137 z m 0,-19.18 v 10.543 c -5.28,-7.179 -13.92,-12.3 -23.88,-12.3 -18.46,0 -31.49,14.05 -31.49,37.05 0,22.559 12.89,37.207 31.49,37.207 9.52,0 18.16,-4.687 23.88,-12.449 v 37.641 h 10.98 v -97.692 h -10.98" /><path
         id="path254"
         style="fill:#2f2e2f;fill-opacity:1;fill-rule:nonzero;stroke:none"
         d="m 2438.73,170.441 c 14.35,0 22.85,11.579 22.85,27.25 0,15.668 -8.5,27.391 -22.85,27.391 -8.65,0 -17.29,-5.273 -21.1,-11.422 v -32.082 c 3.81,-6.156 12.45,-11.137 21.1,-11.137 z m -32.08,-8.043 v 97.692 h 10.98 v -37.641 c 5.71,7.762 14.21,12.449 23.88,12.449 18.46,0 31.49,-14.648 31.49,-37.207 0,-23 -13.03,-37.05 -31.49,-37.05 -9.96,0 -18.6,5.121 -23.88,12.3 v -10.543 h -10.98" /><path
         id="path256"
         style="fill:#2f2e2f;fill-opacity:1;fill-rule:nonzero;stroke:none"
         d="m 2485.01,144.66 c 1.61,-0.73 4.25,-1.172 6.01,-1.172 4.83,0 8.05,1.614 10.55,7.473 l 4.68,10.699 -29.59,71.481 h 11.87 l 23.58,-58.012 23.44,58.012 h 12.01 l -35.45,-85.11 c -4.25,-10.242 -11.43,-14.211 -20.8,-14.34 -2.35,0 -6.01,0.43 -8.06,1.02 l 1.76,9.949" /></g></g></svg>